<svg width="25" height="24" viewBox="0 0 25 24" fill="none" xmlns="http://www.w3.org/2000/svg">
<g id="icon / tabler-icons / category-2" clip-path="url(#clip0_519_7371)">
<path id="Vector" d="M14.5 4H20.5V10H14.5V4Z" stroke="#FFFCFC" stroke-width="2" stroke-linecap="round" stroke-linejoin="round"/>
<path id="Vector_2" d="M4.5 14H10.5V20H4.5V14Z" stroke="#FFFCFC" stroke-width="2" stroke-linecap="round" stroke-linejoin="round"/>
<path id="Vector_3" d="M17.5 20C19.1569 20 20.5 18.6569 20.5 17C20.5 15.3431 19.1569 14 17.5 14C15.8431 14 14.5 15.3431 14.5 17C14.5 18.6569 15.8431 20 17.5 20Z" stroke="#FFFCFC" stroke-width="2" stroke-linecap="round" stroke-linejoin="round"/>
<path id="Vector_4" d="M7.5 10C9.15685 10 10.5 8.65685 10.5 7C10.5 5.34315 9.15685 4 7.5 4C5.84315 4 4.5 5.34315 4.5 7C4.5 8.65685 5.84315 10 7.5 10Z" stroke="#FFFCFC" stroke-width="2" stroke-linecap="round" stroke-linejoin="round"/>
</g>
<defs>
<clipPath id="clip0_519_7371">
<rect width="24" height="24" fill="white" transform="translate(0.5)"/>
</clipPath>
</defs>
</svg>
