<svg width="21" height="21" viewBox="0 0 21 21" fill="none" xmlns="http://www.w3.org/2000/svg">
<g id="icon / ionicons / sharp / cog-sharp">
<path id="Vector" d="M18.625 10.2629C18.6197 10.1655 18.5801 10.073 18.5132 10.0019C18.4463 9.93086 18.3564 9.88578 18.2594 9.87466L17.2578 9.71255C17.2128 9.70516 17.1713 9.68341 17.1396 9.65053C17.108 9.61766 17.0878 9.57542 17.082 9.53013C17.0629 9.40708 17.043 9.27935 17.0156 9.15825C17.0068 9.11421 17.012 9.06851 17.0304 9.02754C17.0488 8.98658 17.0796 8.95238 17.1184 8.92974L18.0082 8.4356C18.0966 8.39056 18.1653 8.31461 18.2013 8.2222C18.2373 8.1298 18.2381 8.02738 18.2035 7.93443L18.0492 7.50865C18.0154 7.41538 17.9483 7.33787 17.8609 7.29095C17.7735 7.24403 17.6718 7.231 17.5754 7.25435L16.5773 7.44966C16.5327 7.4577 16.4867 7.45141 16.4459 7.43169C16.405 7.41198 16.3715 7.37984 16.35 7.3399C16.2918 7.23091 16.2285 7.11997 16.1625 7.01099C16.1385 6.97216 16.1273 6.92681 16.1304 6.88128C16.1335 6.83575 16.1507 6.79232 16.1797 6.75708L16.8438 5.99029C16.9112 5.91776 16.9499 5.82318 16.9527 5.72421C16.9555 5.62524 16.9222 5.52862 16.859 5.45239L16.5691 5.10435C16.5061 5.02796 16.4169 4.97768 16.3189 4.96324C16.2209 4.94881 16.1211 4.97125 16.0387 5.02622L15.1649 5.55083C15.1261 5.57404 15.0809 5.58418 15.036 5.57975C14.991 5.57532 14.9487 5.55655 14.9152 5.52622C14.8188 5.44146 14.7219 5.35982 14.6273 5.28443C14.5918 5.25639 14.5661 5.21775 14.5541 5.17413C14.542 5.13051 14.5441 5.08417 14.5602 5.04185L14.9219 4.08872C14.9613 3.99778 14.9659 3.89554 14.9348 3.80141C14.9038 3.70729 14.8393 3.62785 14.7535 3.57818L14.3598 3.34966C14.2739 3.30015 14.1728 3.28405 14.0758 3.30444C13.9787 3.32484 13.8927 3.3803 13.834 3.46021L13.1953 4.26099C13.1724 4.29598 13.138 4.32186 13.0981 4.33413C13.0581 4.3464 13.0151 4.3443 12.9766 4.32818C12.9523 4.31841 12.7512 4.23599 12.5945 4.18365C12.5516 4.16964 12.5142 4.14226 12.4879 4.1055C12.4616 4.06874 12.4478 4.02453 12.4484 3.97935L12.4637 2.96099C12.4691 2.86155 12.4381 2.76354 12.3765 2.68531C12.3149 2.60708 12.2269 2.55399 12.1289 2.53599L11.6816 2.45786C11.5842 2.44103 11.4839 2.46014 11.3995 2.51166C11.3151 2.56317 11.2523 2.64358 11.2227 2.73794L10.8906 3.70708C10.8758 3.75024 10.8474 3.78744 10.8096 3.81314C10.7719 3.83883 10.7269 3.85164 10.6813 3.84966H10.3004C10.2552 3.85041 10.211 3.83698 10.1738 3.81127C10.1367 3.78555 10.1086 3.74884 10.0934 3.7063L9.7629 2.74263C9.73382 2.64758 9.6711 2.56638 9.58646 2.51425C9.50183 2.46212 9.4011 2.44263 9.30313 2.45943L8.85547 2.53755C8.75808 2.55533 8.67046 2.60786 8.60888 2.68538C8.54731 2.76291 8.51598 2.86015 8.52071 2.95904L8.53633 3.98091C8.53665 4.02678 8.52214 4.07151 8.49497 4.10847C8.4678 4.14542 8.42942 4.17261 8.38555 4.18599C8.29649 4.22075 8.10196 4.29458 8.01407 4.32779C7.93594 4.35591 7.8504 4.32505 7.77969 4.24575L7.14454 3.4645C7.08633 3.38464 7.00076 3.32899 6.90415 3.30817C6.80754 3.28735 6.70665 3.30281 6.62071 3.35161L6.22774 3.57935C6.14104 3.62911 6.07582 3.70921 6.04466 3.8042C6.0135 3.89919 6.01861 4.00235 6.05899 4.0938L6.42032 5.04458C6.43608 5.087 6.43815 5.13329 6.42624 5.17694C6.41433 5.22059 6.38903 5.25941 6.35391 5.28794C6.25899 5.36607 6.16173 5.44419 6.06485 5.53091C6.03159 5.561 5.98956 5.57967 5.94493 5.58416C5.9003 5.58866 5.8554 5.57876 5.8168 5.55591L4.95313 5.02114C4.87023 4.96712 4.77044 4.94524 4.67253 4.95962C4.57462 4.97401 4.48535 5.02367 4.42149 5.09927L4.13243 5.44693C4.06828 5.5226 4.03429 5.61927 4.03695 5.71844C4.03962 5.81761 4.07876 5.91231 4.14688 5.98443L4.81446 6.75005C4.84407 6.78459 4.86177 6.82774 4.86493 6.87312C4.8681 6.9185 4.85656 6.96369 4.83204 7.002C4.76524 7.10825 4.70157 7.21997 4.64376 7.33169C4.62213 7.37188 4.58833 7.40419 4.54721 7.42397C4.50608 7.44376 4.45975 7.45002 4.41485 7.44185L3.41837 7.24927C3.32189 7.22599 3.22021 7.23905 3.13274 7.28595C3.04528 7.33285 2.97814 7.41032 2.94415 7.50357L2.7879 7.92857C2.75327 8.02163 2.75404 8.12417 2.79004 8.21671C2.82605 8.30924 2.89479 8.38533 2.98321 8.43052L3.87305 8.92466C3.91307 8.94675 3.94481 8.98126 3.96349 9.02297C3.98216 9.06469 3.98675 9.11135 3.97657 9.15591L3.96758 9.20435C3.94688 9.31372 3.92852 9.41724 3.91016 9.5274C3.90395 9.57212 3.88376 9.61374 3.85246 9.64629C3.82117 9.67884 3.78039 9.70067 3.73594 9.70865L2.73204 9.87075C2.63397 9.88289 2.54367 9.93029 2.47797 10.0041C2.41228 10.0779 2.37568 10.1731 2.37501 10.2719V10.7243C2.37443 10.8235 2.41071 10.9195 2.47681 10.9935C2.54291 11.0675 2.63414 11.1144 2.73282 11.1251L3.73594 11.2868C3.78102 11.2941 3.82251 11.3158 3.8542 11.3487C3.88589 11.3816 3.90607 11.4239 3.91173 11.4692C3.93087 11.5926 3.95079 11.72 3.97813 11.8411C3.98694 11.8851 3.98178 11.9308 3.96336 11.9718C3.94494 12.0127 3.91419 12.0469 3.8754 12.0696L2.98594 12.5645C2.89759 12.6095 2.82886 12.6855 2.79285 12.7779C2.75684 12.8703 2.75605 12.9727 2.79063 13.0657L2.94688 13.4915C2.9808 13.5847 3.04786 13.6621 3.13526 13.709C3.22266 13.7559 3.32428 13.769 3.42071 13.7458L4.41876 13.5524C4.46339 13.5444 4.50941 13.5506 4.55025 13.5704C4.59109 13.5901 4.62464 13.6222 4.6461 13.6622C4.70469 13.7715 4.76798 13.8825 4.8336 13.9911C4.85769 14.0299 4.86899 14.0752 4.86591 14.1208C4.86282 14.1663 4.84551 14.2098 4.81641 14.245L4.15235 15.0122C4.08421 15.084 4.04462 15.1783 4.04103 15.2772C4.03743 15.3762 4.07007 15.4731 4.13282 15.5497L4.42227 15.8977C4.48533 15.9741 4.57448 16.0244 4.67248 16.0388C4.77047 16.0532 4.87034 16.0308 4.95274 15.9758L5.82657 15.4512C5.86531 15.428 5.91049 15.4179 5.95544 15.4223C6.00038 15.4267 6.04271 15.4455 6.07618 15.4758C6.17305 15.5606 6.27149 15.6422 6.36407 15.7176C6.3996 15.7457 6.42527 15.7843 6.43735 15.8279C6.44943 15.8715 6.4473 15.9179 6.43126 15.9602L6.06954 16.9133C6.03015 17.0043 6.02553 17.1065 6.05657 17.2006C6.08761 17.2948 6.15214 17.3742 6.2379 17.4239L6.63282 17.652C6.7186 17.7015 6.81963 17.7177 6.91657 17.6974C7.01351 17.677 7.09955 17.6217 7.15821 17.5418L7.80469 16.7469C7.85899 16.6793 7.94532 16.6493 8.00938 16.6751C8.14493 16.7313 8.23594 16.7629 8.39727 16.8168C8.44024 16.8309 8.47762 16.8583 8.50396 16.895C8.53031 16.9318 8.54425 16.9759 8.54376 17.0211L8.52813 18.0387C8.52286 18.1381 8.55391 18.236 8.61551 18.3142C8.6771 18.3924 8.76503 18.4456 8.8629 18.4637L9.31016 18.5418C9.40762 18.5588 9.50791 18.5397 9.59235 18.4882C9.67679 18.4366 9.73962 18.3562 9.76915 18.2618L10.1012 17.2942C10.1164 17.2512 10.1449 17.2143 10.1825 17.1886C10.2202 17.163 10.265 17.15 10.3106 17.1516H10.6914C10.7366 17.1508 10.7809 17.1642 10.818 17.1899C10.8552 17.2157 10.8833 17.2524 10.8984 17.295L11.2293 18.2586C11.2549 18.3423 11.3067 18.4155 11.377 18.4676C11.4473 18.5197 11.5324 18.5479 11.6199 18.5481C11.6432 18.5481 11.6665 18.5461 11.6895 18.5418L12.1375 18.4637C12.2348 18.4459 12.3224 18.3933 12.3839 18.3158C12.4453 18.2383 12.4766 18.1411 12.4719 18.0422L12.4563 17.0204C12.456 16.9753 12.47 16.9314 12.4963 16.8949C12.5227 16.8584 12.5599 16.8312 12.6027 16.8172C12.7527 16.7668 12.8578 16.7262 12.9508 16.6907L12.9742 16.6813C13.0938 16.6399 13.1512 16.6868 13.1879 16.7325L13.8422 17.5383C13.9008 17.618 13.9868 17.6733 14.0837 17.6937C14.1805 17.714 14.2815 17.6979 14.3672 17.6485L14.7606 17.4208C14.8466 17.3711 14.9113 17.2914 14.9424 17.197C14.9734 17.1026 14.9686 17.0001 14.9289 16.909L14.568 15.9583C14.552 15.9159 14.5499 15.8696 14.5617 15.8259C14.5736 15.7822 14.5988 15.7434 14.634 15.7149C14.7289 15.6368 14.8262 15.5586 14.9231 15.4719C14.9565 15.4417 14.9988 15.4231 15.0437 15.4187C15.0885 15.4144 15.1336 15.4245 15.1723 15.4477L16.0469 15.9711C16.1298 16.0252 16.2296 16.0471 16.3275 16.0327C16.4254 16.0183 16.5147 15.9686 16.5785 15.893L16.8676 15.5454C16.9317 15.4698 16.9657 15.3731 16.963 15.274C16.9604 15.1749 16.9212 15.0803 16.8531 15.0083L16.1867 14.2399C16.1571 14.2054 16.1394 14.1622 16.1363 14.1168C16.1331 14.0714 16.1446 14.0263 16.1691 13.9879C16.2359 13.8821 16.2996 13.7704 16.3574 13.6583C16.3792 13.6182 16.413 13.586 16.4541 13.5662C16.4952 13.5464 16.5414 13.5401 16.5863 13.5481L17.5816 13.7422C17.6781 13.7655 17.7798 13.7525 17.8673 13.7056C17.9547 13.6587 18.0219 13.5812 18.0559 13.4879L18.2102 13.0629C18.2448 12.9699 18.244 12.8675 18.208 12.775C18.172 12.6825 18.1032 12.6065 18.0148 12.5614L17.1242 12.0665C17.0848 12.0442 17.0535 12.0097 17.0352 11.9683C17.0168 11.9268 17.0123 11.8806 17.0223 11.8364L17.0313 11.7876C17.052 11.6782 17.0703 11.5751 17.0887 11.4649C17.0949 11.4202 17.1151 11.3786 17.1464 11.346C17.1777 11.3134 17.2185 11.2916 17.2629 11.2836L18.2668 11.1219C18.3651 11.11 18.4557 11.0626 18.5216 10.9887C18.5876 10.9148 18.6243 10.8194 18.625 10.7204V10.2629ZM7.20274 14.6122C6.58638 14.1162 6.0894 13.488 5.74856 12.7741C5.40771 12.0601 5.23172 11.2787 5.23359 10.4875C5.23547 9.69642 5.41516 8.91583 5.75939 8.20351C6.10362 7.49119 6.60357 6.86537 7.22227 6.37232L9.56602 10.4977L7.20274 14.6122ZM10.5 15.7778C9.85217 15.7784 9.20987 15.6585 8.60587 15.4243L10.9688 11.3122H15.7039C15.3129 13.8379 13.1285 15.7778 10.5 15.7778ZM10.9711 9.68794L8.6293 5.56685C9.22656 5.3386 9.86062 5.22183 10.5 5.22232C13.1285 5.22232 15.3129 7.16216 15.7039 9.68794H10.9711Z" fill="#FDFEFF"/>
</g>
</svg>
