<svg width="12" height="8" viewBox="0 0 12 8" fill="none" xmlns="http://www.w3.org/2000/svg">
<path fill-rule="evenodd" clip-rule="evenodd" d="M0.508796 3.58224C2.0338 1.39626 4.01113 0.25 5.99205 0.25C8.31856 0.25 10.3227 1.76565 11.505 3.59181L11.5056 3.59267C11.5838 3.71425 11.6254 3.85577 11.6254 4.00035C11.6254 4.14467 11.584 4.28594 11.506 4.40736C10.3247 6.25705 8.33353 7.75 5.99205 7.75C3.62565 7.75 1.6729 6.26015 0.494446 4.41586C0.414371 4.29152 0.37284 4.14627 0.375087 3.99838C0.377339 3.85012 0.423488 3.70586 0.507701 3.58382L0.508796 3.58224ZM1.125 4.00978L1.12604 4.0114C2.21451 5.71522 3.95907 7 5.99205 7C8.00226 7 9.78444 5.70976 10.8742 4.00325L10.8749 4.00213L10.8754 4.00035L10.8753 3.99957L10.875 3.99865C9.78106 2.30957 7.9843 1 5.99205 1C4.31997 1 2.55012 1.96778 1.125 4.00978Z" fill="white"/>
<path fill-rule="evenodd" clip-rule="evenodd" d="M6 2.5C5.17157 2.5 4.5 3.17157 4.5 4C4.5 4.82843 5.17157 5.5 6 5.5C6.82843 5.5 7.5 4.82843 7.5 4C7.5 3.17157 6.82843 2.5 6 2.5ZM3.75 4C3.75 2.75736 4.75736 1.75 6 1.75C7.24264 1.75 8.25 2.75736 8.25 4C8.25 5.24264 7.24264 6.25 6 6.25C4.75736 6.25 3.75 5.24264 3.75 4Z" fill="white"/>
</svg>
