<svg width="16" height="16" viewBox="0 0 16 16" fill="none" xmlns="http://www.w3.org/2000/svg">
<path fill-rule="evenodd" clip-rule="evenodd" d="M5.33665 2.50776C6.16256 2.11078 7.06737 1.90517 7.98374 1.90625C11.3512 1.90642 14.0834 4.63101 14.0834 7.99344V8.92469C14.0834 9.20083 13.8596 9.42469 13.5834 9.42469C13.3073 9.42469 13.0834 9.20083 13.0834 8.92469V7.99344C13.0834 5.18534 10.8009 2.90625 7.98344 2.90625C7.21736 2.90531 6.46032 3.07718 5.76986 3.40905C5.0794 3.74093 4.47269 4.22427 3.9949 4.8231C3.82267 5.03895 3.50807 5.07432 3.29222 4.90209C3.07637 4.72987 3.041 4.41526 3.21323 4.19941C3.78482 3.48303 4.51064 2.90479 5.33665 2.50776ZM2.4 6.57375C2.67614 6.57375 2.9 6.79761 2.9 7.07375V8.005C2.9 10.8166 5.18132 13.0937 7.99991 13.0938C8.76419 13.0926 9.51858 12.9209 10.2081 12.5913C10.8979 12.2616 11.5054 11.7822 11.9864 11.1879C12.1601 10.9733 12.4749 10.9401 12.6896 11.1139C12.9042 11.2876 12.9374 11.6024 12.7636 11.8171C12.1891 12.5269 11.4634 13.0997 10.6394 13.4935C9.81543 13.8874 8.91398 14.0924 8.00072 14.0938L8 14.0938C4.63113 14.0938 1.9 11.3709 1.9 8.005V7.07375C1.9 6.79761 2.12386 6.57375 2.4 6.57375Z" fill="white"/>
<path fill-rule="evenodd" clip-rule="evenodd" d="M2.02145 6.27145C2.21365 6.07925 2.52419 6.0758 2.72061 6.26368L4.15811 7.63868C4.35766 7.82956 4.3647 8.14606 4.17382 8.34562C3.98295 8.54517 3.66644 8.5522 3.46689 8.36133L2.38277 7.32434L1.35355 8.35356C1.15829 8.54882 0.841709 8.54882 0.646447 8.35356C0.451184 8.1583 0.451184 7.84171 0.646447 7.64645L2.02145 6.27145Z" fill="white"/>
<path fill-rule="evenodd" clip-rule="evenodd" d="M11.8262 7.65439C12.0171 7.45484 12.3336 7.44781 12.5331 7.63868L13.6172 8.67567L14.6464 7.64645C14.8417 7.45119 15.1583 7.45119 15.3536 7.64645C15.5488 7.84171 15.5488 8.1583 15.3536 8.35356L13.9786 9.72856C13.7864 9.92076 13.4758 9.92421 13.2794 9.73633L11.8419 8.36133C11.6423 8.17045 11.6353 7.85394 11.8262 7.65439Z" fill="white"/>
</svg>
