<svg width="12" height="12" viewBox="0 0 12 12" fill="none" xmlns="http://www.w3.org/2000/svg">
<path fill-rule="evenodd" clip-rule="evenodd" d="M4.40901 1.03401C4.83097 0.612053 5.40326 0.375 6 0.375C6.59674 0.375 7.16903 0.612053 7.59099 1.03401C8.01295 1.45597 8.25 2.02826 8.25 2.625C8.25 2.83211 8.08211 3 7.875 3C7.66789 3 7.5 2.83211 7.5 2.625C7.5 2.22718 7.34196 1.84564 7.06066 1.56434C6.77936 1.28304 6.39782 1.125 6 1.125C5.60218 1.125 5.22064 1.28304 4.93934 1.56434C4.65804 1.84564 4.5 2.22718 4.5 2.625V4.875C4.5 5.08211 4.33211 5.25 4.125 5.25C3.91789 5.25 3.75 5.08211 3.75 4.875V2.625C3.75 2.02826 3.98705 1.45597 4.40901 1.03401Z" fill="#FBFCFF"/>
<path fill-rule="evenodd" clip-rule="evenodd" d="M3.375 5.25C2.96079 5.25 2.625 5.58579 2.625 6V10.125C2.625 10.5392 2.96079 10.875 3.375 10.875H8.625C9.03921 10.875 9.375 10.5392 9.375 10.125V6C9.375 5.58579 9.03921 5.25 8.625 5.25H3.375ZM1.875 6C1.875 5.17157 2.54657 4.5 3.375 4.5H8.625C9.45343 4.5 10.125 5.17157 10.125 6V10.125C10.125 10.9534 9.45343 11.625 8.625 11.625H3.375C2.54657 11.625 1.875 10.9534 1.875 10.125V6Z" fill="#FBFCFF"/>
</svg>
