<svg width="28" height="28" viewBox="0 0 28 28" fill="none" xmlns="http://www.w3.org/2000/svg">
<g id="Frame 1171276181">
<g id="Vector">
<path d="M5.68064 21.681L7.28928 23.2896C7.79727 23.7976 8.51692 24.094 9.19424 24.094C9.87156 24.094 10.5912 23.7976 11.0992 23.2896L21.0754 13.3135L21.5834 8.48752C21.668 7.89486 21.2024 7.38687 20.6097 7.38687C20.5674 7.38687 20.5251 7.38687 20.4827 7.38687L15.6568 7.89486L5.68064 17.871C4.62233 18.9294 4.62233 20.6227 5.68064 21.681ZM16.5881 9.84217L19.4244 9.54584L19.1281 12.3821L14.3165 17.236L13.0042 18.5484L10.4219 15.9661L11.7342 14.6537L16.5881 9.84217ZM7.11995 19.3104L8.98258 17.4054L11.5649 19.9877L9.6599 21.8503C9.49057 22.0197 9.2789 22.062 9.19424 22.062C9.10957 22.062 8.89791 22.0197 8.72858 21.8503L7.11995 20.2417C6.86595 19.9877 6.86595 19.5644 7.11995 19.3104Z" fill="white"/>
<path d="M6.34738 3.51328C6.51333 2.82891 7.48667 2.82891 7.65262 3.51328L8.10924 5.39639C8.16849 5.64073 8.35927 5.83151 8.60361 5.89075L10.4867 6.34738C11.1711 6.51333 11.1711 7.48667 10.4867 7.65262L8.60361 8.10924C8.35927 8.16849 8.16849 8.35927 8.10924 8.60361L7.65262 10.4867C7.48667 11.1711 6.51333 11.1711 6.34738 10.4867L5.89076 8.60361C5.83151 8.35927 5.64073 8.16849 5.39639 8.10924L3.51328 7.65262C2.82891 7.48667 2.82891 6.51333 3.51328 6.34738L5.39639 5.89076C5.64073 5.83151 5.83151 5.64073 5.89075 5.39639L6.34738 3.51328Z" fill="white"/>
<path fill-rule="evenodd" clip-rule="evenodd" d="M7 4.24146L6.6739 5.58629C6.54355 6.12384 6.12384 6.54355 5.58629 6.6739L4.24146 7L5.58629 7.3261C6.12384 7.45645 6.54355 7.87616 6.6739 8.41371L7 9.75854L7.3261 8.41371C7.45645 7.87616 7.87616 7.45645 8.41371 7.3261L9.75854 7L8.41371 6.6739C7.87616 6.54355 7.45645 6.12384 7.3261 5.58629L7 4.24146ZM7.65262 3.51328C7.48667 2.82891 6.51333 2.82891 6.34738 3.51328L5.89075 5.39639C5.83151 5.64073 5.64073 5.83151 5.39639 5.89076L3.51328 6.34738C2.82891 6.51333 2.82891 7.48667 3.51328 7.65262L5.39639 8.10924C5.64073 8.16849 5.83151 8.35927 5.89076 8.60361L6.34738 10.4867C6.51333 11.1711 7.48667 11.1711 7.65262 10.4867L8.10924 8.60361C8.16849 8.35927 8.35927 8.16849 8.60361 8.10924L10.4867 7.65262C11.1711 7.48667 11.1711 6.51333 10.4867 6.34738L8.60361 5.89075C8.35927 5.83151 8.16849 5.64073 8.10924 5.39639L7.65262 3.51328Z" fill="white"/>
<path d="M21.5105 19.385C21.635 18.8717 22.365 18.8717 22.4895 19.385L22.8319 20.7973C22.8764 20.9805 23.0195 21.1236 23.2027 21.1681L24.615 21.5105C25.1283 21.635 25.1283 22.365 24.615 22.4895L23.2027 22.8319C23.0195 22.8764 22.8764 23.0195 22.8319 23.2027L22.4895 24.615C22.365 25.1283 21.635 25.1283 21.5105 24.615L21.1681 23.2027C21.1236 23.0195 20.9805 22.8764 20.7973 22.8319L19.385 22.4895C18.8717 22.365 18.8717 21.635 19.385 21.5105L20.7973 21.1681C20.9805 21.1236 21.1236 20.9805 21.1681 20.7973L21.5105 19.385Z" fill="white"/>
<path fill-rule="evenodd" clip-rule="evenodd" d="M22 19.9311L21.7554 20.9397C21.6577 21.3429 21.3429 21.6577 20.9397 21.7554L19.9311 22L20.9397 22.2446C21.3429 22.3423 21.6577 22.6571 21.7554 23.0603L22 24.0689L22.2446 23.0603C22.3423 22.6571 22.6571 22.3423 23.0603 22.2446L24.0689 22L23.0603 21.7554C22.6571 21.6577 22.3423 21.3429 22.2446 20.9397L22 19.9311ZM22.4895 19.385C22.365 18.8717 21.635 18.8717 21.5105 19.385L21.1681 20.7973C21.1236 20.9805 20.9805 21.1236 20.7973 21.1681L19.385 21.5105C18.8717 21.635 18.8717 22.365 19.385 22.4895L20.7973 22.8319C20.9805 22.8764 21.1236 23.0195 21.1681 23.2027L21.5105 24.615C21.635 25.1283 22.365 25.1283 22.4895 24.615L22.8319 23.2027C22.8764 23.0195 23.0195 22.8764 23.2027 22.8319L24.615 22.4895C25.1283 22.365 25.1283 21.635 24.615 21.5105L23.2027 21.1681C23.0195 21.1236 22.8764 20.9805 22.8319 20.7973L22.4895 19.385Z" fill="white"/>
<path d="M25 4C25 4.55228 24.5523 5 24 5C23.4477 5 23 4.55228 23 4C23 3.44772 23.4477 3 24 3C24.5523 3 25 3.44772 25 4Z" fill="white"/>
<path d="M15 4C15 4.55228 14.5523 5 14 5C13.4477 5 13 4.55228 13 4C13 3.44772 13.4477 3 14 3C14.5523 3 15 3.44772 15 4Z" fill="white"/>
<path d="M6 14C6 14.5523 5.55228 15 5 15C4.44772 15 4 14.5523 4 14C4 13.4477 4.44772 13 5 13C5.55228 13 6 13.4477 6 14Z" fill="white"/>
</g>
</g>
</svg>
