<svg width="13" height="18" viewBox="0 0 13 18" fill="none" xmlns="http://www.w3.org/2000/svg">
<path id="Vector" fill-rule="evenodd" clip-rule="evenodd" d="M2.5 2C1.94772 2 1.5 2.44772 1.5 3V15C1.5 15.5523 1.94772 16 2.5 16H10.5C11.0523 16 11.5 15.5523 11.5 15V3C11.5 2.44772 11.0523 2 10.5 2H2.5ZM0.5 3C0.5 1.89543 1.39543 1 2.5 1H10.5C11.6046 1 12.5 1.89543 12.5 3V15C12.5 16.1046 11.6046 17 10.5 17H2.5C1.39543 17 0.5 16.1046 0.5 15V3Z" fill="white" stroke="white" stroke-linecap="round" stroke-linejoin="round"/>
</svg>
