<svg width="18" height="18" viewBox="0 0 18 18" fill="none" xmlns="http://www.w3.org/2000/svg">
<g id="Group 1171275897">
<path id="Vector" d="M1 15.2222V2.77778C1 1.79594 1.79594 1 2.77778 1H12.7081C13.1796 1 13.6317 1.1873 13.9652 1.5207L16.4793 4.03485C16.8127 4.36826 17 4.82044 17 5.29194V15.2222C17 16.2041 16.2041 17 15.2222 17H2.77778C1.79594 17 1 16.2041 1 15.2222Z" stroke="#F8F9FF" stroke-width="1.5"/>
<path id="Vector_2" d="M5.97767 6.33333H12.0221C12.3167 6.33333 12.5554 6.09455 12.5554 5.8V1.53333C12.5554 1.23878 12.3167 1 12.0221 1H5.97767C5.68312 1 5.44434 1.23878 5.44434 1.53333V5.8C5.44434 6.09455 5.68312 6.33333 5.97767 6.33333Z" stroke="#F8F9FF" stroke-width="1.5"/>
<path id="Vector_3" d="M3.66675 10.422V16.9998H14.3334V10.422C14.3334 10.1274 14.0947 9.88867 13.8001 9.88867H4.20008C3.90553 9.88867 3.66675 10.1274 3.66675 10.422Z" stroke="#F8F9FF" stroke-width="1.5"/>
</g>
</svg>
