<svg width="12" height="12" viewBox="0 0 12 12" fill="none" xmlns="http://www.w3.org/2000/svg">
<path d="M1 6.99993V4.99993C1 4.72379 1.22386 4.49993 1.5 4.49993H2.84861C2.94732 4.49993 3.04383 4.47071 3.12596 4.41596L5.22265 3.01817C5.55495 2.79665 6 3.03484 6 3.43419V8.56568C6 8.96503 5.55495 9.20323 5.22265 8.98168L3.12596 7.58388C3.04383 7.52913 2.94732 7.49993 2.84861 7.49993H1.5C1.22386 7.49993 1 7.27608 1 6.99993Z" stroke="white" stroke-width="1.5"/>
<path d="M8.25 3.75C8.25 3.75 9 4.5 9 5.75C9 7 8.25 7.75 8.25 7.75" stroke="white" stroke-width="1.5" stroke-linecap="round" stroke-linejoin="round"/>
<path d="M9.75 2.25C9.75 2.25 11 3.5 11 5.75C11 8 9.75 9.25 9.75 9.25" stroke="white" stroke-width="1.5" stroke-linecap="round" stroke-linejoin="round"/>
</svg>
