<svg width="28" height="28" viewBox="0 0 28 28" fill="none" xmlns="http://www.w3.org/2000/svg">
<g id="Frame 1171276179">
<g id="Vector">
<path d="M8.43949 5.83408C8.70916 4.72197 10.2908 4.72197 10.5605 5.83408L11.3025 8.89413C11.3988 9.29118 11.7088 9.6012 12.1059 9.69748L15.1659 10.4395C16.278 10.7092 16.278 12.2908 15.1659 12.5605L12.1059 13.3025C11.7088 13.3988 11.3988 13.7088 11.3025 14.1059L10.5605 17.1659C10.2908 18.278 8.70916 18.278 8.43949 17.1659L7.69748 14.1059C7.6012 13.7088 7.29118 13.3988 6.89413 13.3025L3.83408 12.5605C2.72197 12.2908 2.72197 10.7092 3.83408 10.4395L6.89413 9.69748C7.29118 9.6012 7.6012 9.29118 7.69748 8.89413L8.43949 5.83408Z" fill="white"/>
<path d="M17.3474 16.5133C17.5133 15.8289 18.4867 15.8289 18.6526 16.5133L19.1092 18.3964C19.1685 18.6407 19.3593 18.8315 19.6036 18.8908L21.4867 19.3474C22.1711 19.5133 22.1711 20.4867 21.4867 20.6526L19.6036 21.1092C19.3593 21.1685 19.1685 21.3593 19.1092 21.6036L18.6526 23.4867C18.4867 24.1711 17.5133 24.1711 17.3474 23.4867L16.8908 21.6036C16.8315 21.3593 16.6407 21.1685 16.3964 21.1092L14.5133 20.6526C13.8289 20.4867 13.8289 19.5133 14.5133 19.3474L16.3964 18.8908C16.6407 18.8315 16.8315 18.6407 16.8908 18.3964L17.3474 16.5133Z" fill="white"/>
<path d="M20.5717 5.71184C20.6806 5.26272 21.3194 5.26272 21.4283 5.71184L21.7279 6.94763C21.7668 7.10798 21.892 7.23318 22.0524 7.27206L23.2882 7.57172C23.7373 7.68062 23.7373 8.31938 23.2882 8.42828L22.0524 8.72794C21.892 8.76682 21.7668 8.89202 21.7279 9.05237L21.4283 10.2882C21.3194 10.7373 20.6806 10.7373 20.5717 10.2882L20.2721 9.05237C20.2332 8.89202 20.108 8.76682 19.9476 8.72794L18.7118 8.42828C18.2627 8.31938 18.2627 7.68062 18.7118 7.57172L19.9476 7.27206C20.108 7.23318 20.2332 7.10798 20.2721 6.94763L20.5717 5.71184Z" fill="white"/>
<path fill-rule="evenodd" clip-rule="evenodd" d="M21 5.93109L20.7554 6.93972C20.6577 7.34288 20.3429 7.65766 19.9397 7.75542L18.9311 8L19.9397 8.24458C20.3429 8.34234 20.6577 8.65712 20.7554 9.06029L21 10.0689L21.2446 9.06029C21.3423 8.65712 21.6571 8.34234 22.0603 8.24458L23.0689 8L22.0603 7.75542C21.6571 7.65766 21.3423 7.34288 21.2446 6.93972L21 5.93109ZM21.4895 5.38496C21.365 4.87168 20.635 4.87168 20.5105 5.38496L20.1681 6.79729C20.1236 6.98055 19.9805 7.12363 19.7973 7.16807L18.385 7.51054C17.8717 7.635 17.8717 8.365 18.385 8.48947L19.7973 8.83193C19.9805 8.87637 20.1236 9.01945 20.1681 9.20271L20.5105 10.615C20.635 11.1283 21.365 11.1283 21.4895 10.615L21.8319 9.20271C21.8764 9.01945 22.0195 8.87637 22.2027 8.83193L23.615 8.48947C24.1283 8.365 24.1283 7.635 23.615 7.51054L22.2027 7.16807C22.0195 7.12363 21.8764 6.98055 21.8319 6.79729L21.4895 5.38496Z" fill="white"/>
<path d="M9 25C8.44772 25 8 24.5523 8 24C8 23.4477 8.44772 23 9 23C9.55228 23 10 23.4477 10 24C10 24.5523 9.55228 25 9 25Z" fill="white"/>
<path d="M4 21C3.44772 21 3 20.5523 3 20C3 19.4477 3.44772 19 4 19C4.55228 19 5 19.4477 5 20C5 20.5523 4.55228 21 4 21Z" fill="white"/>
<path d="M15 5C14.4477 5 14 4.55228 14 4C14 3.44772 14.4477 3 15 3C15.5523 3 16 3.44772 16 4C16 4.55228 15.5523 5 15 5Z" fill="white"/>
<path d="M24 16C23.4477 16 23 15.5523 23 15C23 14.4477 23.4477 14 24 14C24.5523 14 25 14.4477 25 15C25 15.5523 24.5523 16 24 16Z" fill="white"/>
</g>
</g>
</svg>
