<svg width="28" height="28" viewBox="0 0 28 28" fill="none" xmlns="http://www.w3.org/2000/svg">
<g id="Frame 1171276180">
<g id="Vector">
<path fill-rule="evenodd" clip-rule="evenodd" d="M9.83391 9C9.83391 8.44772 10.2816 8 10.8339 8H16.8339C17.3862 8 17.8339 8.44772 17.8339 9C17.8339 9.55228 17.3862 10 16.8339 10H14.8339V18H16.8339C17.3862 18 17.8339 18.4477 17.8339 19C17.8339 19.5523 17.3862 20 16.8339 20H10.8339C10.2816 20 9.83391 19.5523 9.83391 19C9.83391 18.4477 10.2816 18 10.8339 18H12.8339V10H10.8339C10.2816 10 9.83391 9.55228 9.83391 9Z" fill="white"/>
<path fill-rule="evenodd" clip-rule="evenodd" d="M5.05744 18.7481C4.6426 18.9375 4.15282 18.7546 3.96348 18.3398C2.73704 15.6527 2.6814 12.5647 3.79699 9.84347C3.96996 9.42154 4.45221 9.21972 4.87414 9.39269C5.29607 9.56566 5.49789 10.0479 5.32492 10.4698C4.38203 12.7698 4.42911 15.3829 5.46575 17.6542C5.65509 18.069 5.47228 18.5588 5.05744 18.7481Z" fill="white"/>
<path fill-rule="evenodd" clip-rule="evenodd" d="M22.3161 18.759C21.9011 18.57 21.7179 18.0803 21.9069 17.6654C22.9478 15.3801 22.9854 12.7466 22.0191 10.4333C21.8434 10.0125 22.042 9.52895 22.4628 9.35319C22.8835 9.17743 23.3671 9.37605 23.5429 9.79683C24.6857 12.5326 24.6418 15.6449 23.4097 18.3498C23.2207 18.7648 22.7311 18.948 22.3161 18.759Z" fill="white"/>
<path d="M6.92602 3.3208C7.02974 2.89307 7.63808 2.89307 7.7418 3.3208L8.02719 4.49774C8.06422 4.65046 8.18346 4.76969 8.33617 4.80672L9.51311 5.09211C9.94084 5.19583 9.94084 5.80417 9.51311 5.90789L8.33617 6.19328C8.31708 6.19791 8.29851 6.20382 8.28057 6.21092C8.15493 6.26064 8.05959 6.36863 8.02719 6.50226L7.7418 7.6792C7.73532 7.70593 7.72686 7.73099 7.71668 7.75439C7.56401 8.10526 7.02326 8.0802 6.92602 7.6792L6.64063 6.50226C6.63832 6.49271 6.63568 6.4833 6.63274 6.47403C6.58857 6.33496 6.47482 6.22799 6.33165 6.19328L5.15471 5.90789C5.12798 5.90141 5.10292 5.89295 5.07952 5.88277C4.72865 5.7301 4.75371 5.18935 5.15471 5.09211L6.33165 4.80672C6.48437 4.76969 6.6036 4.65046 6.64063 4.49774L6.92602 3.3208Z" fill="white"/>
<path d="M19.926 20.3208C20.0297 19.8931 20.6381 19.8931 20.7418 20.3208L21.0272 21.4977C21.0642 21.6505 21.1835 21.7697 21.3362 21.8067L22.5131 22.0921C22.9408 22.1958 22.9408 22.8042 22.5131 22.9079L21.3362 23.1933C21.3171 23.1979 21.2985 23.2038 21.2806 23.2109C21.1549 23.2606 21.0596 23.3686 21.0272 23.5023L20.7418 24.6792C20.7353 24.7059 20.7269 24.731 20.7167 24.7544C20.564 25.1053 20.0233 25.0802 19.926 24.6792L19.6406 23.5023C19.6383 23.4927 19.6357 23.4833 19.6327 23.474C19.5886 23.335 19.4748 23.228 19.3317 23.1933L18.1547 22.9079C18.128 22.9014 18.1029 22.893 18.0795 22.8828C17.7286 22.7301 17.7537 22.1893 18.1547 22.0921L19.3317 21.8067C19.4844 21.7697 19.6036 21.6505 19.6406 21.4977L19.926 20.3208Z" fill="white"/>
<path d="M20.8339 5C20.8339 5.55228 20.3862 6 19.8339 6C19.2816 6 18.8339 5.55228 18.8339 5C18.8339 4.44772 19.2816 4 19.8339 4C20.3862 4 20.8339 4.44772 20.8339 5Z" fill="white"/>
<path d="M8.83391 23C8.83391 23.5523 8.38619 24 7.83391 24C7.28163 24 6.83391 23.5523 6.83391 23C6.83391 22.4477 7.28163 22 7.83391 22C8.38619 22 8.83391 22.4477 8.83391 23Z" fill="white"/>
</g>
</g>
</svg>
