<svg width="28" height="28" viewBox="0 0 28 28" fill="none" xmlns="http://www.w3.org/2000/svg">
<g id="Frame 1171276183">
<g id="Vector">
<path fill-rule="evenodd" clip-rule="evenodd" d="M14 5.7C12.0557 5.7 10.5034 7.32985 10.5 9.29897L10.5 13.407C10.5 15.3675 12.0579 16.9832 14 16.9832H14.3429C16.2849 16.9832 17.8429 15.3675 17.8429 13.407V9.30547C17.8429 7.33338 16.2893 5.7 14.3429 5.7H14ZM12.3571 13.6396V9.072C12.4674 8.21984 13.1809 7.57891 14 7.57891H14.3429C15.1619 7.57891 15.8755 8.21984 15.9857 9.072V13.6396C15.8747 14.4708 15.1662 15.1043 14.3429 15.1043H14C13.1767 15.1043 12.4681 14.4708 12.3571 13.6396Z" fill="white"/>
<path d="M8.62852 14.2918C8.10395 14.2918 7.69995 14.7243 7.69995 15.2312C7.69995 16.7646 8.55974 18.1132 9.70253 19.0866C10.6266 19.8737 11.7755 20.0585 12.9167 20.242C13.0351 20.261 13.1534 20.28 13.2714 20.2997V21.8211H10.4571C9.93252 21.8211 9.52852 22.2536 9.52852 22.7605C9.52852 23.2675 9.93252 23.7 10.4571 23.7H17.9428C18.4674 23.7 18.8714 23.2675 18.8714 22.7605C18.8714 22.2536 18.4674 21.8211 17.9428 21.8211H15.1285V20.2997C15.2465 20.28 15.3648 20.261 15.4832 20.242C16.6244 20.0585 17.7733 19.8737 18.6974 19.0866C19.8402 18.1132 20.7 16.7646 20.7 15.2312C20.7 14.7243 20.296 14.2918 19.7714 14.2918C19.2468 14.2918 18.8428 14.7243 18.8428 15.2312C18.8428 16.1919 18.252 17.123 17.3232 17.8373C16.4533 18.5063 15.3581 18.5032 14.3856 18.5004C14.3232 18.5002 14.2613 18.5 14.2 18.5C14.1386 18.5 14.0767 18.5002 14.0143 18.5004C13.0418 18.5032 11.9466 18.5063 11.0767 17.8373C10.1479 17.123 9.55709 16.1919 9.55709 15.2312C9.55709 14.7243 9.1531 14.2918 8.62852 14.2918Z" fill="white"/>
<path d="M21.5105 4.38496C21.635 3.87168 22.365 3.87168 22.4895 4.38496L22.8319 5.79729C22.8764 5.98055 23.0195 6.12363 23.2027 6.16807L24.615 6.51054C25.1283 6.635 25.1283 7.365 24.615 7.48947L23.2027 7.83193C23.0195 7.87637 22.8764 8.01945 22.8319 8.20271L22.4895 9.61504C22.365 10.1283 21.635 10.1283 21.5105 9.61504L21.1681 8.20271C21.1236 8.01945 20.9805 7.87637 20.7973 7.83193L19.385 7.48947C19.3529 7.48169 19.3228 7.47154 19.2947 7.45933C18.8737 7.27612 18.9038 6.62722 19.385 6.51054L20.7973 6.16807C20.9805 6.12363 21.1236 5.98055 21.1681 5.79729L21.5105 4.38496Z" fill="white"/>
<path d="M5.09211 19.3208C5.19583 18.8931 5.80417 18.8931 5.90789 19.3208L6.19328 20.4977C6.23031 20.6505 6.34955 20.7697 6.50226 20.8067L7.6792 21.0921C8.10693 21.1958 8.10693 21.8042 7.6792 21.9079L6.50226 22.1933C6.48317 22.1979 6.4646 22.2038 6.44666 22.2109C6.32102 22.2606 6.22568 22.3686 6.19328 22.5023L5.90789 23.6792C5.90141 23.7059 5.89295 23.731 5.88277 23.7544C5.7301 24.1053 5.18935 24.0802 5.09211 23.6792L4.80672 22.5023C4.80441 22.4927 4.80177 22.4833 4.79883 22.474C4.75466 22.335 4.64091 22.228 4.49774 22.1933L3.3208 21.9079C3.29407 21.9014 3.26901 21.893 3.24561 21.8828C2.89474 21.7301 2.9198 21.1893 3.3208 21.0921L4.49774 20.8067C4.65046 20.7697 4.76969 20.6505 4.80672 20.4977L5.09211 19.3208Z" fill="white"/>
<path d="M9 5C9 5.55228 8.55228 6 8 6C7.44772 6 7 5.55228 7 5C7 4.44772 7.44772 4 8 4C8.55228 4 9 4.44772 9 5Z" fill="white"/>
<path d="M24 23C24 23.5523 23.5523 24 23 24C22.4477 24 22 23.5523 22 23C22 22.4477 22.4477 22 23 22C23.5523 22 24 22.4477 24 23Z" fill="white"/>
<path d="M24 19C24 19.5523 23.5523 20 23 20C22.4477 20 22 19.5523 22 19C22 18.4477 22.4477 18 23 18C23.5523 18 24 18.4477 24 19Z" fill="white"/>
<path d="M6 8C6 8.55228 5.55228 9 5 9C4.44772 9 4 8.55228 4 8C4 7.44772 4.44772 7 5 7C5.55228 7 6 7.44772 6 8Z" fill="white"/>
</g>
</g>
</svg>
